<svg width="479" height="400" viewBox="0 0 479 400" fill="none" xmlns="http://www.w3.org/2000/svg">
<g clip-path="url(#clip0_23_2)">
<path d="M94.6406 325.99L278.438 242.272L183.798 35.4297L0.000428952 119.148L94.6406 325.99Z" fill="#F2F2F2"/>
<path d="M66.6418 205.826L205.782 142.449C206.044 142.329 206.248 142.111 206.348 141.842C206.449 141.572 206.439 141.274 206.319 141.013C206.199 140.751 205.98 140.548 205.71 140.447C205.441 140.347 205.142 140.357 204.88 140.477L65.7396 203.854C65.4775 203.973 65.2737 204.192 65.173 204.461C65.0723 204.73 65.0829 205.029 65.2025 205.29C65.3222 205.552 65.541 205.755 65.8109 205.855C66.0808 205.956 66.3797 205.945 66.6418 205.826Z" fill="white"/>
<path d="M58.9045 188.916L198.045 125.539C198.174 125.479 198.291 125.395 198.388 125.291C198.486 125.187 198.561 125.065 198.611 124.931C198.661 124.798 198.684 124.656 198.679 124.514C198.674 124.372 198.641 124.232 198.582 124.102C198.522 123.973 198.438 123.856 198.334 123.759C198.229 123.662 198.107 123.587 197.973 123.537C197.84 123.487 197.697 123.464 197.555 123.469C197.412 123.474 197.272 123.508 197.142 123.567L58.0023 186.944C57.8725 187.003 57.7557 187.087 57.6585 187.191C57.5613 187.295 57.4856 187.418 57.4357 187.551C57.3858 187.684 57.3627 187.826 57.3678 187.968C57.3729 188.111 57.406 188.25 57.4653 188.38C57.5245 188.509 57.6087 188.626 57.7131 188.723C57.8175 188.82 57.94 188.896 58.0736 188.945C58.2073 188.995 58.3495 189.018 58.492 189.013C58.6346 189.008 58.7747 188.975 58.9045 188.916Z" fill="white"/>
<path d="M51.1672 172.006L190.307 108.628C190.437 108.569 190.554 108.485 190.651 108.381C190.748 108.277 190.824 108.155 190.874 108.021C190.924 107.888 190.947 107.746 190.942 107.604C190.937 107.462 190.904 107.322 190.844 107.192C190.785 107.063 190.701 106.946 190.596 106.849C190.492 106.752 190.37 106.677 190.236 106.627C190.102 106.577 189.96 106.554 189.818 106.559C189.675 106.564 189.535 106.597 189.405 106.656L50.265 170.034C50.0035 170.153 49.8002 170.372 49.6999 170.641C49.5996 170.91 49.6103 171.208 49.7298 171.469C49.8493 171.73 50.0678 171.933 50.3373 172.034C50.6067 172.135 50.9052 172.124 51.1672 172.006Z" fill="white"/>
<path d="M43.4299 155.095L182.57 91.7182C182.7 91.6591 182.817 91.5751 182.914 91.4709C183.011 91.3668 183.087 91.2445 183.137 91.1112C183.186 90.9778 183.209 90.836 183.204 90.6937C183.199 90.5515 183.166 90.4116 183.107 90.2822C183.048 90.1527 182.964 90.0361 182.859 89.9391C182.755 89.8421 182.632 89.7666 182.499 89.7168C182.365 89.6671 182.223 89.6441 182.08 89.6491C181.938 89.6542 181.797 89.6872 181.668 89.7463L42.5277 153.124C42.3979 153.183 42.2811 153.267 42.1839 153.371C42.0866 153.475 42.0109 153.597 41.961 153.731C41.9112 153.864 41.8881 154.006 41.8932 154.148C41.8983 154.29 41.9314 154.43 41.9906 154.56C42.0498 154.689 42.1341 154.806 42.2385 154.903C42.3429 155 42.4654 155.075 42.599 155.125C42.7327 155.175 42.8749 155.198 43.0174 155.193C43.16 155.188 43.3001 155.155 43.4299 155.095Z" fill="white"/>
<path d="M73.634 221.107L212.774 157.73C212.904 157.671 213.021 157.587 213.118 157.483C213.215 157.378 213.291 157.256 213.341 157.123C213.391 156.99 213.414 156.848 213.408 156.705C213.403 156.563 213.37 156.423 213.311 156.294C213.252 156.164 213.168 156.048 213.063 155.951C212.959 155.854 212.836 155.778 212.703 155.729C212.569 155.679 212.427 155.656 212.284 155.661C212.142 155.666 212.002 155.699 211.872 155.758L72.7318 219.135C72.4697 219.255 72.2659 219.473 72.1652 219.742C72.0644 220.012 72.0751 220.31 72.1947 220.571C72.3144 220.833 72.5332 221.036 72.8031 221.137C73.0731 221.237 73.3719 221.227 73.634 221.107Z" fill="white"/>
<path d="M50.3992 130.29L159.085 80.7847C159.697 80.5219 160.19 80.044 160.472 79.4418C160.753 78.8397 160.803 78.1554 160.612 77.5189C160.496 77.1729 160.307 76.8553 160.059 76.5866C159.812 76.3179 159.51 76.1041 159.175 75.959C158.839 75.8139 158.476 75.7407 158.11 75.7443C157.744 75.7478 157.383 75.8279 157.051 75.9795L48.3976 125.47C47.7749 125.734 47.2721 126.219 46.9861 126.831C46.7002 127.443 46.6513 128.139 46.849 128.785C46.9696 129.126 47.1601 129.439 47.4085 129.703C47.6569 129.967 47.9576 130.176 48.2916 130.318C48.6255 130.46 48.9854 130.53 49.3483 130.526C49.7111 130.521 50.069 130.441 50.3992 130.29Z" fill="white"/>
<path d="M468.596 119.148L284.798 35.4297L190.158 242.272L373.956 325.99L468.596 119.148Z" fill="#F2F2F2"/>
<path d="M401.954 205.826L262.814 142.449C262.684 142.39 262.567 142.306 262.47 142.201C262.373 142.097 262.297 141.975 262.247 141.842C262.197 141.708 262.174 141.566 262.179 141.424C262.184 141.282 262.218 141.142 262.277 141.013C262.336 140.883 262.42 140.767 262.525 140.67C262.629 140.573 262.752 140.497 262.885 140.447C263.019 140.398 263.161 140.375 263.304 140.38C263.446 140.385 263.586 140.418 263.716 140.477L402.856 203.854C402.986 203.913 403.103 203.997 403.2 204.101C403.297 204.206 403.373 204.328 403.423 204.461C403.473 204.594 403.496 204.736 403.491 204.879C403.485 205.021 403.452 205.161 403.393 205.29C403.334 205.42 403.25 205.536 403.145 205.633C403.041 205.73 402.918 205.806 402.785 205.855C402.651 205.905 402.509 205.928 402.366 205.923C402.224 205.918 402.084 205.885 401.954 205.826Z" fill="white"/>
<path d="M409.691 188.916L270.551 125.539C270.289 125.419 270.085 125.201 269.985 124.931C269.884 124.662 269.894 124.364 270.014 124.102C270.134 123.841 270.353 123.638 270.622 123.537C270.892 123.437 271.191 123.447 271.453 123.567L410.593 186.944C410.723 187.003 410.84 187.087 410.937 187.191C411.034 187.295 411.11 187.418 411.16 187.551C411.21 187.684 411.233 187.826 411.228 187.968C411.223 188.111 411.19 188.25 411.13 188.38C411.071 188.509 410.987 188.626 410.883 188.723C410.778 188.82 410.656 188.896 410.522 188.945C410.388 188.995 410.246 189.018 410.104 189.013C409.961 189.008 409.821 188.975 409.691 188.916Z" fill="white"/>
<path d="M417.428 172.006L278.288 108.628C278.025 108.509 277.822 108.291 277.721 108.021C277.62 107.752 277.631 107.454 277.75 107.192C277.87 106.931 278.089 106.727 278.359 106.627C278.629 106.526 278.928 106.537 279.19 106.656L418.33 170.034C418.592 170.153 418.795 170.372 418.896 170.641C418.996 170.91 418.985 171.208 418.866 171.469C418.746 171.731 418.528 171.934 418.258 172.034C417.988 172.135 417.69 172.125 417.428 172.006Z" fill="white"/>
<path d="M425.165 155.095L286.025 91.7182C285.895 91.6591 285.778 91.5751 285.681 91.4709C285.584 91.3668 285.508 91.2445 285.458 91.1112C285.408 90.9778 285.385 90.836 285.39 90.6937C285.395 90.5515 285.428 90.4116 285.488 90.2822C285.547 90.1527 285.631 90.0361 285.736 89.9391C285.84 89.8421 285.962 89.7666 286.096 89.7168C286.23 89.6671 286.372 89.6441 286.514 89.6491C286.657 89.6542 286.797 89.6872 286.927 89.7463L426.067 153.124C426.329 153.243 426.533 153.461 426.634 153.731C426.734 154 426.724 154.298 426.604 154.56C426.484 154.821 426.266 155.024 425.996 155.125C425.726 155.225 425.427 155.215 425.165 155.095Z" fill="white"/>
<path d="M394.962 221.107L255.822 157.73C255.56 157.611 255.356 157.392 255.255 157.123C255.154 156.854 255.165 156.555 255.285 156.294C255.404 156.032 255.623 155.829 255.893 155.729C256.163 155.628 256.462 155.639 256.724 155.758L395.864 219.135C395.994 219.194 396.11 219.278 396.208 219.383C396.305 219.487 396.381 219.609 396.43 219.742C396.48 219.876 396.503 220.018 396.498 220.16C396.493 220.302 396.46 220.442 396.401 220.571C396.342 220.701 396.257 220.817 396.153 220.914C396.049 221.011 395.926 221.087 395.793 221.137C395.659 221.186 395.517 221.209 395.374 221.204C395.232 221.199 395.091 221.166 394.962 221.107Z" fill="white"/>
<path d="M418.196 130.29L309.51 80.7847C308.898 80.5219 308.404 80.044 308.123 79.4418C307.841 78.8397 307.791 78.1554 307.982 77.5189C308.099 77.1729 308.288 76.8553 308.535 76.5866C308.783 76.3179 309.084 76.1041 309.42 75.959C309.756 75.8139 310.119 75.7407 310.484 75.7443C310.85 75.7478 311.211 75.8279 311.544 75.9795L420.197 125.47C420.82 125.734 421.323 126.219 421.609 126.831C421.895 127.443 421.943 128.139 421.746 128.785C421.625 129.126 421.435 129.439 421.186 129.703C420.938 129.967 420.637 130.176 420.303 130.318C419.969 130.46 419.609 130.53 419.246 130.526C418.884 130.521 418.526 130.441 418.196 130.29Z" fill="white"/>
<path d="M412.627 329.384C411.467 311.449 401.451 293.252 384.778 286.451C390.4 305.173 389.203 325.276 381.399 343.203C378.365 350.106 374.269 357.468 376.306 364.726C377.573 369.243 381.116 372.85 385.175 375.215C389.234 377.58 393.819 378.865 398.346 380.125L399.205 380.923C407.461 364.95 413.787 347.319 412.627 329.384Z" fill="#F0F0F0"/>
<path d="M384.589 286.778C393.84 298.444 399.173 312.722 399.828 327.584C400.026 330.78 399.718 333.989 398.915 337.09C398.035 340.085 396.366 342.791 394.084 344.926C391.995 346.959 389.623 348.798 388.066 351.302C387.289 352.596 386.794 354.039 386.614 355.537C386.435 357.035 386.575 358.554 387.025 359.994C388.052 363.611 390.322 366.645 392.644 369.534C395.223 372.743 397.952 376.034 398.885 380.141C398.999 380.638 399.766 380.434 399.653 379.937C398.029 372.793 391.433 368.399 388.551 361.881C387.206 358.839 386.771 355.374 388.382 352.343C389.791 349.692 392.235 347.794 394.368 345.754C396.625 343.704 398.345 341.133 399.378 338.267C400.337 335.217 400.768 332.026 400.654 328.831C400.512 321.634 399.237 314.505 396.875 307.704C394.223 299.926 390.257 292.659 385.149 286.216C384.832 285.818 384.275 286.382 384.589 286.778Z" fill="white"/>
<path d="M399.899 322.785C402.383 322.337 404.626 321.022 406.229 319.076C407.831 317.129 408.688 314.678 408.646 312.16C408.643 312.057 408.601 311.959 408.527 311.887C408.454 311.815 408.356 311.774 408.253 311.773C408.15 311.772 408.05 311.811 407.976 311.882C407.901 311.953 407.856 312.05 407.852 312.152C407.895 314.497 407.097 316.781 405.601 318.59C404.105 320.399 402.011 321.616 399.695 322.019C399.192 322.108 399.399 322.873 399.899 322.785Z" fill="white"/>
<path d="M395.278 344.034C391.012 341.137 387.996 336.742 386.833 331.726C386.719 331.229 385.951 331.432 386.066 331.929C387.286 337.147 390.433 341.714 394.88 344.719C395.304 345.005 395.7 344.318 395.278 344.034Z" fill="white"/>
<path d="M331.014 315.18C331.271 315.369 331.529 315.559 331.786 315.755C335.23 318.318 338.46 321.157 341.443 324.242C341.677 324.477 341.911 324.719 342.139 324.96C349.247 332.47 354.896 341.231 358.799 350.799C360.348 354.607 361.605 358.528 362.558 362.527C363.875 368.049 364.861 374.142 367.841 378.772C368.147 379.258 368.482 379.725 368.846 380.17L398.162 381.906C398.23 381.876 398.299 381.854 398.368 381.824L399.535 381.947C399.5 381.737 399.46 381.521 399.425 381.311C399.406 381.189 399.379 381.067 399.36 380.945C399.345 380.864 399.329 380.783 399.32 380.709C399.315 380.682 399.31 380.654 399.304 380.634C399.295 380.56 399.279 380.492 399.27 380.424C399.047 379.212 398.814 378 398.573 376.787C398.574 376.78 398.574 376.78 398.568 376.773C396.707 367.535 394.057 358.371 390.097 349.899C389.978 349.644 389.86 349.382 389.727 349.127C387.921 345.318 385.806 341.663 383.403 338.198C382.081 336.305 380.664 334.48 379.157 332.73C375.255 328.215 370.665 324.341 365.556 321.25C355.371 315.088 343.324 312.245 331.886 314.964C331.594 315.033 331.307 315.103 331.014 315.18Z" fill="#F0F0F0"/>
<path d="M331.058 315.555C345.485 319.312 358.358 327.509 367.849 338.981C369.936 341.415 371.626 344.161 372.856 347.12C373.961 350.04 374.262 353.203 373.727 356.279C373.287 359.157 372.502 362.05 372.77 364.984C372.93 366.485 373.405 367.934 374.166 369.238C374.927 370.542 375.955 371.671 377.183 372.55C380.187 374.821 383.829 375.88 387.427 376.792C391.422 377.805 395.588 378.793 398.81 381.511C399.201 381.84 399.69 381.217 399.3 380.888C393.693 376.159 385.775 376.613 379.54 373.14C376.631 371.519 374.193 369.014 373.65 365.626C373.175 362.663 373.982 359.679 374.453 356.769C375.019 353.776 374.841 350.69 373.936 347.782C372.861 344.77 371.28 341.963 369.261 339.481C364.805 333.82 359.485 328.894 353.495 324.882C346.684 320.266 339.132 316.846 331.166 314.77C330.673 314.642 330.568 315.427 331.058 315.555Z" fill="white"/>
<path d="M365.011 335.108C366.724 333.257 367.722 330.86 367.827 328.343C367.932 325.827 367.137 323.355 365.583 321.369C365.268 320.969 364.629 321.439 364.945 321.84C366.395 323.687 367.135 325.989 367.033 328.333C366.93 330.676 365.991 332.905 364.386 334.619C364.038 334.992 364.664 335.478 365.011 335.108Z" fill="white"/>
<path d="M374.143 354.849C368.988 355.099 363.929 353.401 359.973 350.095C359.582 349.767 359.092 350.39 359.483 350.718C363.606 354.151 368.875 355.907 374.238 355.635C374.749 355.609 374.651 354.823 374.143 354.849Z" fill="white"/>
<path d="M346.487 321.297C345.974 322.151 345.256 322.864 344.398 323.373C343.541 323.881 342.57 324.169 341.573 324.211C341.062 324.23 341.16 325.017 341.668 324.997C342.769 324.946 343.841 324.627 344.79 324.067C345.739 323.507 346.536 322.724 347.112 321.786C347.174 321.702 347.201 321.598 347.188 321.495C347.176 321.392 347.124 321.297 347.045 321.23C346.961 321.166 346.856 321.137 346.752 321.149C346.648 321.162 346.552 321.215 346.487 321.297Z" fill="white"/>
<path d="M97.5501 327.728H372.383V18.4375H97.5501V327.728Z" fill="white"/>
<path d="M97.5501 327.728H372.383V18.4375H97.5501V327.728ZM370.905 326.254H99.0277V19.9118H370.905L370.905 326.254Z" fill="#CACACA"/>
<path d="M130.938 163.255H338.994C339.188 163.255 339.38 163.217 339.56 163.143C339.739 163.069 339.902 162.96 340.039 162.823C340.176 162.686 340.285 162.524 340.359 162.345C340.433 162.166 340.472 161.975 340.472 161.781C340.472 161.587 340.433 161.396 340.359 161.217C340.285 161.038 340.176 160.875 340.039 160.738C339.902 160.602 339.739 160.493 339.56 160.419C339.38 160.345 339.188 160.307 338.994 160.307H130.938C130.546 160.307 130.17 160.462 129.893 160.738C129.616 161.015 129.461 161.39 129.461 161.781C129.461 162.172 129.616 162.547 129.893 162.823C130.17 163.1 130.546 163.255 130.938 163.255Z" fill="#E4E4E4"/>
<path d="M130.938 137.97H338.994C339.386 137.97 339.762 137.815 340.039 137.538C340.316 137.262 340.472 136.887 340.472 136.496C340.472 136.105 340.316 135.73 340.039 135.453C339.762 135.177 339.386 135.021 338.994 135.021H130.938C130.546 135.021 130.17 135.177 129.893 135.453C129.616 135.73 129.461 136.105 129.461 136.496C129.461 136.887 129.616 137.262 129.893 137.538C130.17 137.815 130.546 137.97 130.938 137.97Z" fill="#E4E4E4"/>
<path d="M130.938 112.685H338.994C339.188 112.685 339.38 112.647 339.56 112.573C339.739 112.499 339.902 112.39 340.039 112.253C340.176 112.116 340.285 111.954 340.359 111.775C340.433 111.596 340.472 111.404 340.472 111.211C340.472 111.017 340.433 110.825 340.359 110.646C340.285 110.468 340.176 110.305 340.039 110.168C339.902 110.031 339.739 109.923 339.56 109.849C339.38 109.774 339.188 109.736 338.994 109.736H130.938C130.546 109.736 130.17 109.892 129.893 110.168C129.616 110.445 129.461 110.82 129.461 111.211C129.461 111.602 129.616 111.977 129.893 112.253C130.17 112.53 130.546 112.685 130.938 112.685Z" fill="#E4E4E4"/>
<path d="M130.938 87.3997H338.994C339.386 87.3997 339.762 87.2444 340.039 86.9679C340.316 86.6914 340.472 86.3164 340.472 85.9254C340.472 85.5344 340.316 85.1595 340.039 84.883C339.762 84.6065 339.386 84.4512 338.994 84.4512H130.938C130.546 84.4512 130.17 84.6065 129.893 84.883C129.616 85.1595 129.461 85.5344 129.461 85.9254C129.461 86.3164 129.616 86.6914 129.893 86.9679C130.17 87.2444 130.546 87.3997 130.938 87.3997Z" fill="#E4E4E4"/>
<path d="M130.938 186.107H338.994C339.386 186.107 339.762 185.951 340.039 185.675C340.316 185.398 340.472 185.023 340.472 184.632C340.472 184.241 340.316 183.866 340.039 183.59C339.762 183.314 339.386 183.158 338.994 183.158H130.938C130.546 183.158 130.17 183.314 129.893 183.59C129.616 183.866 129.461 184.241 129.461 184.632C129.461 185.023 129.616 185.398 129.893 185.675C130.17 185.951 130.546 186.107 130.938 186.107Z" fill="#E4E4E4"/>
<path d="M130.938 299.55H338.994C339.386 299.55 339.762 299.395 340.039 299.118C340.316 298.842 340.472 298.467 340.472 298.076C340.472 297.685 340.316 297.31 340.039 297.033C339.762 296.757 339.386 296.602 338.994 296.602H130.938C130.546 296.602 130.17 296.757 129.893 297.033C129.616 297.31 129.461 297.685 129.461 298.076C129.461 298.467 129.616 298.842 129.893 299.118C130.17 299.395 130.546 299.55 130.938 299.55Z" fill="#E4E4E4"/>
<path d="M180.778 275.884H289.155C289.88 275.884 290.574 275.596 291.087 275.085C291.599 274.574 291.887 273.881 291.888 273.158V209.55C291.887 208.828 291.599 208.135 291.087 207.624C290.574 207.112 289.88 206.825 289.155 206.824H180.778C180.054 206.825 179.359 207.112 178.847 207.624C178.335 208.135 178.047 208.828 178.046 209.55V273.158C178.047 273.881 178.335 274.574 178.847 275.085C179.359 275.596 180.054 275.884 180.778 275.884Z" fill="white"/>
<path d="M216.97 239.546C217.522 238.957 218.187 238.484 218.925 238.156C219.663 237.828 220.46 237.652 221.268 237.638C222.076 237.623 222.879 237.771 223.628 238.072C224.378 238.374 225.059 238.822 225.631 239.391L256.132 269.823C256.938 270.625 258.029 271.077 259.167 271.078C260.305 271.08 261.398 270.632 262.206 269.832L266.723 265.334C267.282 264.777 267.945 264.335 268.675 264.033C269.405 263.731 270.187 263.576 270.977 263.576C271.767 263.576 272.549 263.731 273.279 264.033C274.008 264.335 274.672 264.777 275.23 265.334L283.973 274.067H185.96V272.822L216.97 239.546Z" fill="#082F49"/>
<path d="M180.778 275.884H289.155C289.88 275.884 290.574 275.596 291.087 275.085C291.599 274.574 291.887 273.881 291.888 273.158V209.55C291.887 208.828 291.599 208.135 291.087 207.624C290.574 207.112 289.88 206.825 289.155 206.824H180.778C180.054 206.825 179.359 207.112 178.847 207.624C178.335 208.135 178.047 208.828 178.046 209.55V273.158C178.047 273.881 178.335 274.574 178.847 275.085C179.359 275.596 180.054 275.884 180.778 275.884ZM289.155 208.642C289.397 208.642 289.628 208.738 289.799 208.908C289.97 209.078 290.066 209.309 290.066 209.55V273.158C290.066 273.399 289.97 273.63 289.799 273.801C289.628 273.971 289.397 274.067 289.155 274.067H180.778C180.537 274.067 180.305 273.971 180.135 273.801C179.964 273.63 179.868 273.399 179.867 273.158V209.55C179.868 209.309 179.964 209.078 180.135 208.908C180.305 208.738 180.537 208.642 180.778 208.642L289.155 208.642Z" fill="#3F3D56"/>
<path d="M169.356 381.488H430.315C430.497 381.488 430.671 381.416 430.799 381.288C430.928 381.16 431 380.986 431 380.804C431 380.623 430.928 380.449 430.799 380.321C430.671 380.193 430.497 380.121 430.315 380.121H169.356C169.175 380.121 169 380.193 168.872 380.321C168.744 380.449 168.671 380.623 168.671 380.804C168.671 380.986 168.744 381.16 168.872 381.288C169 381.416 169.175 381.488 169.356 381.488Z" fill="#CACACA"/>
<path d="M153.606 60.6331H316.124C317.03 60.6526 317.911 60.3394 318.6 59.753C319.29 59.1666 319.739 58.348 319.863 57.4527C319.914 56.9587 319.861 56.4596 319.707 55.9875C319.552 55.5154 319.3 55.0809 318.967 54.7121C318.634 54.3433 318.226 54.0484 317.772 53.8466C317.317 53.6447 316.825 53.5404 316.327 53.5403H153.858C152.938 53.5162 152.042 53.8327 151.341 54.4288C150.641 55.0249 150.187 55.8585 150.066 56.7689C150.021 57.2595 150.08 57.7538 150.238 58.2204C150.396 58.6871 150.649 59.1158 150.982 59.4793C151.316 59.8428 151.721 60.1331 152.173 60.3318C152.624 60.5304 153.112 60.6331 153.606 60.6331Z" fill="#082F49"/>
</g>
<defs>
<clipPath id="clip0_23_2">
<rect width="479" height="400" fill="white" transform="matrix(-1 0 0 1 479 0)"/>
</clipPath>
</defs>
</svg>
