<svg width="500" height="500" viewBox="0 0 500 500" fill="none" xmlns="http://www.w3.org/2000/svg">
<path d="M500 382.4H0V382.65H500V382.4Z" fill="#EBEBEB"/>
<path d="M449.899 398.49H416.779V398.74H449.899V398.49Z" fill="#EBEBEB"/>
<path d="M331.219 401.211H322.529V401.461H331.219V401.211Z" fill="#EBEBEB"/>
<path d="M415.78 389.211H396.59V389.461H415.78V389.211Z" fill="#EBEBEB"/>
<path d="M95.6509 390.891H52.4609V391.141H95.6509V390.891Z" fill="#EBEBEB"/>
<path d="M110.891 390.891H104.561V391.141H110.891V390.891Z" fill="#EBEBEB"/>
<path d="M225.151 395.109H131.471V395.359H225.151V395.109Z" fill="#EBEBEB"/>
<path d="M237.001 337.8H43.9109C42.3983 337.797 40.9485 337.195 39.8798 336.124C38.8112 335.053 38.2109 333.603 38.2109 332.09V60.66C38.2241 59.156 38.8301 57.718 39.8974 56.6582C40.9646 55.5985 42.4069 55.0026 43.9109 55H237.001C238.515 55 239.968 55.6016 241.039 56.6724C242.109 57.7433 242.711 59.1956 242.711 60.71V332.09C242.711 333.604 242.109 335.057 241.039 336.128C239.968 337.198 238.515 337.8 237.001 337.8ZM43.9109 55.2C42.4646 55.2026 41.0784 55.7791 40.0566 56.8027C39.0348 57.8264 38.4609 59.2136 38.4609 60.66V332.09C38.4609 333.536 39.0348 334.924 40.0566 335.947C41.0784 336.971 42.4646 337.547 43.9109 337.55H237.001C238.448 337.547 239.835 336.971 240.859 335.948C241.882 334.924 242.458 333.537 242.461 332.09V60.66C242.458 59.2127 241.882 57.8255 240.859 56.8021C239.835 55.7787 238.448 55.2026 237.001 55.2H43.9109Z" fill="#EBEBEB"/>
<path d="M453.31 337.8H260.21C258.696 337.797 257.246 337.195 256.175 336.125C255.105 335.054 254.503 333.604 254.5 332.09V60.66C254.516 59.1551 255.124 57.7171 256.193 56.6576C257.262 55.5981 258.705 55.0025 260.21 55H453.31C454.812 55.0052 456.252 55.6022 457.317 56.6617C458.382 57.7212 458.987 59.1578 459 60.66V332.09C459 333.601 458.401 335.05 457.335 336.121C456.268 337.191 454.821 337.795 453.31 337.8ZM260.21 55.2C258.763 55.2026 257.375 55.7787 256.352 56.8021C255.329 57.8255 254.753 59.2127 254.75 60.66V332.09C254.753 333.537 255.329 334.924 256.352 335.948C257.375 336.971 258.763 337.547 260.21 337.55H453.31C454.757 337.547 456.145 336.971 457.168 335.948C458.191 334.924 458.767 333.537 458.77 332.09V60.66C458.767 59.2127 458.191 57.8255 457.168 56.8021C456.145 55.7787 454.757 55.2026 453.31 55.2H260.21Z" fill="#EBEBEB"/>
<path d="M54.9799 382.391H82.1699L82.1699 309.951H54.9799L54.9799 382.391Z" fill="#E6E6E6"/>
<path d="M60.1407 382.4H54.9707V363.25H65.5507L60.1407 382.4Z" fill="#F0F0F0"/>
<path d="M210.099 382.391H237.289V309.951H210.099V382.391Z" fill="#E6E6E6"/>
<path d="M54.9794 377.17H214.609V309.95H54.9794V377.17Z" fill="#F0F0F0"/>
<path d="M209.439 382.4H214.609V363.25H204.029L209.439 382.4Z" fill="#F0F0F0"/>
<path d="M209.8 369.079H161.48V317.359H209.8V369.079ZM162.48 368.079H208.8V318.359H162.48V368.079Z" fill="#E6E6E6"/>
<path d="M159.001 369.079H110.631V317.359H159.001V369.079ZM111.681 368.079H158.001V318.359H111.631L111.681 368.079Z" fill="#E6E6E6"/>
<path d="M108.099 369.079H59.7793V317.359H108.099V369.079ZM60.7793 368.079H107.099V318.359H60.7793V368.079Z" fill="#E6E6E6"/>
<path d="M271.46 231.66L431.67 231.66V95.2502L271.46 95.2502V231.66Z" fill="#E6E6E6"/>
<path d="M267.86 231.66L430.1 231.66V95.2502L267.86 95.2502V231.66Z" fill="#F5F5F5"/>
<path d="M423.641 225.109V101.789L274.341 101.789V225.109H423.641Z" fill="#FAFAFA"/>
<path d="M405.31 225.111L346.55 101.801H326.59L385.35 225.111H405.31Z" fill="white"/>
<path d="M379.689 225.111L320.929 101.801H307.189L365.949 225.111H379.689Z" fill="white"/>
<path d="M329.77 225.121V101.801H322.05V225.121H329.77Z" fill="#E6E6E6"/>
<path d="M381.09 225.121V101.801H373.37V225.121H381.09Z" fill="#E6E6E6"/>
<path d="M328.369 229.27V96.9297H318.609V229.27H328.369Z" fill="#F5F5F5"/>
<path d="M379.689 229.27V96.9297H369.929V229.27H379.689Z" fill="#F5F5F5"/>
<path d="M275.02 225.121V101.801H274.33V225.121H275.02Z" fill="#E6E6E6"/>
<path d="M265.141 86.8301H438.711C438.932 86.8327 439.143 86.9224 439.298 87.0796C439.453 87.2369 439.541 87.449 439.541 87.6701C439.541 87.8902 439.453 88.1013 439.297 88.257C439.142 88.4126 438.931 88.5001 438.711 88.5001H265.141C264.92 88.5001 264.709 88.4126 264.554 88.257C264.398 88.1013 264.311 87.8902 264.311 87.6701C264.311 87.449 264.398 87.2369 264.553 87.0796C264.708 86.9224 264.92 86.8327 265.141 86.8301Z" fill="#E6E6E6"/>
<path d="M431.669 92.3399C431.968 92.3373 432.254 92.2174 432.465 92.0061C432.677 91.7947 432.796 91.5088 432.799 91.2099V88.7899C432.796 88.492 432.676 88.2071 432.465 87.9974C432.253 87.7876 431.967 87.6699 431.669 87.6699C431.371 87.6699 431.085 87.7876 430.874 87.9974C430.662 88.2071 430.542 88.492 430.539 88.7899V91.2099C430.542 91.5088 430.662 91.7947 430.873 92.0061C431.084 92.2174 431.37 92.3373 431.669 92.3399Z" fill="#E6E6E6"/>
<path d="M277.73 92.3399C278.029 92.3373 278.314 92.2174 278.526 92.0061C278.737 91.7947 278.857 91.5088 278.86 91.2099V88.7899C278.857 88.492 278.737 88.2071 278.525 87.9974C278.313 87.7876 278.028 87.6699 277.73 87.6699C277.432 87.6699 277.146 87.7876 276.934 87.9974C276.722 88.2071 276.602 88.492 276.6 88.7899V91.2099C276.602 91.5088 276.722 91.7947 276.933 92.0061C277.145 92.2174 277.431 92.3373 277.73 92.3399Z" fill="#E6E6E6"/>
<path opacity="0.6" d="M265.399 155.369L427.529 155.369V87.6691L265.399 87.6691V155.369Z" fill="#E0E0E0"/>
<path d="M113.251 262.051H90.5809C88.1675 262.051 86.2109 264.007 86.2109 266.421V305.581C86.2109 307.994 88.1675 309.951 90.5809 309.951H113.251C115.664 309.951 117.621 307.994 117.621 305.581V266.421C117.621 264.007 115.664 262.051 113.251 262.051Z" fill="#FAFAFA"/>
<path d="M116.151 258.5H87.6809C86.8691 258.5 86.2109 259.158 86.2109 259.97V261.15C86.2109 261.962 86.8691 262.62 87.6809 262.62H116.151C116.963 262.62 117.621 261.962 117.621 261.15V259.97C117.621 259.158 116.963 258.5 116.151 258.5Z" fill="#E6E6E6"/>
<path d="M199.331 275.189H182.881C181.13 275.189 179.711 276.609 179.711 278.359V306.789C179.711 308.54 181.13 309.959 182.881 309.959H199.331C201.082 309.959 202.501 308.54 202.501 306.789V278.359C202.501 276.609 201.082 275.189 199.331 275.189Z" fill="#F0F0F0"/>
<path d="M201.441 272.609H180.771C180.186 272.609 179.711 273.084 179.711 273.669V274.539C179.711 275.125 180.186 275.599 180.771 275.599H201.441C202.026 275.599 202.501 275.125 202.501 274.539V273.669C202.501 273.084 202.026 272.609 201.441 272.609Z" fill="#E6E6E6"/>
<path d="M147.121 282.02H115.961C112.647 282.02 109.961 284.706 109.961 288.02V303.95C109.961 307.263 112.647 309.95 115.961 309.95H147.121C150.435 309.95 153.121 307.263 153.121 303.95V288.02C153.121 284.706 150.435 282.02 147.121 282.02Z" fill="#F0F0F0"/>
<path d="M151.111 277.141H111.971C110.861 277.141 109.961 278.041 109.961 279.151V280.791C109.961 281.901 110.861 282.801 111.971 282.801H151.111C152.221 282.801 153.121 281.901 153.121 280.791V279.151C153.121 278.041 152.221 277.141 151.111 277.141Z" fill="#F5F5F5"/>
<path d="M282.431 382.4H287.471V299.76H282.431V382.4Z" fill="#E6E6E6"/>
<path d="M427.96 283.67H400.67V299.75H427.96V283.67Z" fill="#E6E6E6"/>
<path d="M264.98 299.76H400.66V283.68H264.98V299.76Z" fill="#F5F5F5"/>
<path d="M427.96 326.619H400.67V342.699H427.96V326.619Z" fill="#E6E6E6"/>
<path d="M264.98 342.699H400.66V326.619H264.98V342.699Z" fill="#F5F5F5"/>
<path d="M418.11 382.4H423.15V299.76H418.11V382.4Z" fill="#E6E6E6"/>
<path d="M395.62 382.4H400.66V299.76H395.62V382.4Z" fill="#F5F5F5"/>
<path d="M264.98 382.4H270.02V299.76H264.98V382.4Z" fill="#F5F5F5"/>
<path d="M69.6803 174.039H133.82V102.109L69.6803 102.109L69.6803 174.039Z" fill="#F0F0F0"/>
<path d="M65.1503 174.039H132.82V102.109L65.1503 102.109L65.1503 174.039Z" fill="#F5F5F5"/>
<path d="M70.8203 107.769V168.369H127.15V107.769H70.8203Z" fill="white"/>
<path d="M89.6499 120.6C87.0316 120.583 84.4887 121.476 82.4557 123.126C80.4228 124.776 79.026 127.081 78.5041 129.647C77.9822 132.213 78.3676 134.881 79.5943 137.194C80.8211 139.507 82.8131 141.322 85.2299 142.33L127.16 160V135.42L93.9999 121.47C92.6214 120.896 91.1431 120.6 89.6499 120.6Z" fill="#F0F0F0"/>
<path d="M154.86 210H219V138.07H154.86V210Z" fill="#F0F0F0"/>
<path d="M150.33 210H218V138.07H150.33V210Z" fill="#F5F5F5"/>
<path d="M156 143.73V204.33H212.33V143.73H156Z" fill="white"/>
<path d="M190.51 167.17L156 152.65V177.78L181.52 188.51C184.35 189.704 187.538 189.724 190.383 188.567C193.228 187.41 195.497 185.17 196.69 182.34C197.883 179.511 197.904 176.322 196.747 173.478C195.59 170.633 193.35 168.364 190.52 167.17H190.51Z" fill="#F0F0F0"/>
<path d="M249.999 427.56C357.082 427.56 443.889 422.492 443.889 416.24C443.889 409.988 357.082 404.92 249.999 404.92C142.917 404.92 56.1094 409.988 56.1094 416.24C56.1094 422.492 142.917 427.56 249.999 427.56Z" fill="#F5F5F5"/>
<path d="M194.07 116.21C195.07 112 205.53 108 214.53 114.21C218.519 116.912 221.512 120.848 223.047 125.415C224.583 129.982 224.577 134.927 223.03 139.49C218.2 153.79 243.41 153.26 249.25 177.37C253.86 196.37 249.59 223.28 223.86 221.82C184.59 219.59 187.98 181.21 186.26 161.04C184.54 140.87 163.11 118.25 194.07 116.21Z" fill="#263238"/>
<path d="M181.099 170.059C180.929 172.979 180.589 175.649 180.209 178.419C179.829 181.189 179.299 183.899 178.709 186.619C178.119 189.339 177.449 192.059 176.599 194.739C175.778 197.459 174.803 200.13 173.679 202.739L172.799 204.739C172.669 205.029 172.429 205.469 172.249 205.839C172.069 206.209 171.829 206.549 171.619 206.909C170.796 208.192 169.88 209.412 168.879 210.559C167.016 212.692 165.011 214.696 162.879 216.559C158.745 220.213 154.346 223.556 149.719 226.559L147.059 222.999C148.939 221.179 150.859 219.299 152.709 217.419C154.559 215.539 156.389 213.629 158.129 211.689C159.843 209.809 161.462 207.843 162.979 205.799C163.672 204.843 164.3 203.841 164.859 202.799C164.969 202.569 165.109 202.329 165.199 202.109C165.289 201.889 165.389 201.709 165.499 201.379L166.179 199.619C167.894 194.787 169.232 189.829 170.179 184.789C170.689 182.249 171.059 179.669 171.439 177.099C171.819 174.529 172.109 171.879 172.329 169.439L181.099 170.059Z" fill="#FFB573"/>
<path d="M175.1 159.56C171.55 160.46 169.1 175.08 169.1 175.08L182.69 184.32C182.69 184.32 188.28 166.99 185.54 163.08C182.66 159 180.28 158.24 175.1 159.56Z" fill="#407BFF"/>
<path opacity="0.2" d="M175.419 162.82L172.689 177.56L178.189 181.29L175.419 162.82Z" fill="#333333"/>
<path d="M148.679 221.781L139.529 223.241L144.749 229.021C144.749 229.021 150.139 227.791 151.089 224.341L148.679 221.781Z" fill="#FFB573"/>
<path d="M135.199 224.39L140.419 230.04L144.749 229.02L139.529 223.24L135.199 224.39Z" fill="#FFB573"/>
<path d="M194.319 405.601H185.699L185.119 385.641H193.739L194.319 405.601Z" fill="#FFB573"/>
<path d="M253.92 380.2L245.94 383.46L235.83 366.03L243.81 362.77L253.92 380.2Z" fill="#FFB573"/>
<path d="M244.439 382.261L252.759 377.321C252.901 377.232 253.071 377.199 253.237 377.226C253.403 377.254 253.553 377.341 253.659 377.471L258.519 383.471C258.63 383.627 258.709 383.804 258.749 383.992C258.789 384.179 258.79 384.373 258.751 384.561C258.713 384.749 258.636 384.927 258.525 385.083C258.414 385.24 258.273 385.372 258.109 385.471C255.179 387.141 253.679 387.801 250.019 389.981C247.769 391.321 242.469 395.901 239.359 397.751C236.249 399.601 234.259 396.621 235.359 395.571C239.026 392.257 241.804 388.076 243.439 383.411C243.632 382.926 243.985 382.52 244.439 382.261Z" fill="#263238"/>
<path d="M185.4 404.61H195.09C195.254 404.606 195.415 404.663 195.54 404.77C195.666 404.877 195.747 405.026 195.77 405.19L196.88 412.86C196.899 413.053 196.878 413.248 196.818 413.432C196.757 413.617 196.659 413.786 196.529 413.931C196.399 414.075 196.24 414.19 196.063 414.269C195.886 414.348 195.694 414.389 195.5 414.39C192.12 414.33 190.5 414.13 186.23 414.13C183.61 414.13 178.23 414.4 174.58 414.4C170.93 414.4 170.77 410.83 172.27 410.5C179.03 409.05 181.69 407.05 183.96 405.14C184.362 404.798 184.872 404.61 185.4 404.61Z" fill="#263238"/>
<g opacity="0.2">
<path d="M185.129 385.65L185.419 395.94H194.039L193.749 385.65H185.129Z" fill="#333333"/>
<path d="M243.818 362.77L235.828 366.03L241.048 375.02L249.028 371.76L243.818 362.77Z" fill="#333333"/>
</g>
<path d="M175.099 159.561C175.099 159.561 170.989 161.001 179.219 211.561H214.219C213.629 197.311 213.619 188.561 220.429 159.291C215.527 158.263 210.557 157.595 205.559 157.291C200.269 156.911 194.958 156.911 189.669 157.291C182.839 158.001 175.099 159.561 175.099 159.561Z" fill="#407BFF"/>
<path opacity="0.2" d="M217.54 170.881C214.37 171.671 211.44 175.131 211.79 181.501C211.987 184.39 213 187.164 214.71 189.501C215.27 184.601 216.21 178.911 217.71 171.631L217.54 170.881Z" fill="#333333"/>
<path d="M191.51 171.331C191.51 171.331 196.06 174.141 197.25 178.331C202.19 174.711 208.9 164.641 209.17 158.611C209.171 158.436 209.138 158.262 209.071 158.099C209.005 157.937 208.907 157.789 208.784 157.664C208.66 157.54 208.513 157.441 208.351 157.373C208.189 157.306 208.015 157.271 207.84 157.271C207.078 157.251 206.317 157.285 205.56 157.371L191.51 171.331Z" fill="#FAFAFA"/>
<path d="M191.51 171.331C191.51 171.331 186.96 174.141 185.77 178.331C180.46 174.441 183.41 161.601 186.45 157.331C187.52 157.218 188.6 157.218 189.67 157.331L191.51 171.331Z" fill="#FAFAFA"/>
<path d="M203.999 139.451C202.999 144.561 201.999 153.931 205.569 157.351C202.253 163.214 197.394 168.055 191.519 171.351C184.429 165.691 189.679 157.351 189.679 157.351C195.379 155.991 195.229 151.751 194.239 147.781L203.999 139.451Z" fill="#FFB573"/>
<path opacity="0.2" d="M199.999 142.85L194.219 147.78C194.468 148.703 194.632 149.647 194.709 150.6C196.889 150.28 200.319 148.43 200.789 146.06C200.999 144.94 200.199 143.38 199.999 142.85Z" fill="#333333"/>
<path d="M212.56 131.231C210.2 139.451 209.37 142.981 204.21 146.331C196.45 151.331 186.87 146.651 186.73 137.891C186.6 130.001 190.49 117.891 199.39 116.381C201.349 116.039 203.364 116.204 205.242 116.86C207.12 117.516 208.799 118.642 210.119 120.13C211.439 121.619 212.356 123.42 212.783 125.363C213.211 127.306 213.134 129.326 212.56 131.231Z" fill="#FFB573"/>
<path d="M194.809 117.111C195.199 119.891 210.419 128.831 213.309 124.171C216.199 119.511 212.039 116.001 205.559 115.111C201.852 114.529 198.058 115.235 194.809 117.111Z" fill="#263238"/>
<path d="M204.73 118.621C202.86 121.081 206.82 138.801 212.49 137.131C218.16 135.461 217.9 129.791 213.96 124.561C211.731 121.501 208.439 119.382 204.73 118.621Z" fill="#263238"/>
<path d="M179.22 211.58C179.22 211.58 172.42 278 173 304.25C173.59 331.59 183.61 393.95 183.61 393.95H195.26C195.26 393.95 193.42 333.19 194.45 306.34C195.57 277.07 204.87 211.58 204.87 211.58H179.22Z" fill="#407BFF"/>
<path opacity="0.4" d="M179.22 211.58C179.22 211.58 172.42 278 173 304.25C173.59 331.59 183.61 393.95 183.61 393.95H195.26C195.26 393.95 193.42 333.19 194.45 306.34C195.57 277.07 204.87 211.58 204.87 211.58H179.22Z" fill="#333333"/>
<path d="M196.25 394.361H182.58L181.58 390.001L196.89 389.471L196.25 394.361Z" fill="#263238"/>
<path opacity="0.2" d="M194.32 228.101C185.72 245.391 192.59 276.941 195.63 288.681C197.19 271.051 199.82 249.501 201.87 233.681C200.56 224.721 198.28 220.121 194.32 228.101Z" fill="#333333"/>
<path d="M188.459 211.58C188.459 211.58 196.389 280.58 202.379 302.76C209.489 329.07 238.379 373.96 238.379 373.96L249.259 369.52C249.259 369.52 230.609 318.41 225.169 304.52C213.569 274.93 223.499 230.85 214.229 211.52L188.459 211.58Z" fill="#407BFF"/>
<path opacity="0.4" d="M188.459 211.58C188.459 211.58 196.389 280.58 202.379 302.76C209.489 329.07 238.379 373.96 238.379 373.96L249.259 369.52C249.259 369.52 230.609 318.41 225.169 304.52C213.569 274.93 223.499 230.85 214.229 211.52L188.459 211.58Z" fill="#333333"/>
<path d="M250.74 369.57L237.24 375.08L234.07 371.43L249.66 364.23L250.74 369.57Z" fill="#263238"/>
<path d="M91.6094 123.76C82.9007 131.468 76.6731 141.585 73.7143 152.832C70.7554 164.079 71.1981 175.951 74.9864 186.946C78.7747 197.941 85.7385 207.566 94.9971 214.604C104.256 221.641 115.393 225.775 127.001 226.483C138.609 227.191 150.167 224.44 160.212 218.58C170.256 212.719 178.338 204.011 183.434 193.557C188.53 183.104 190.411 171.374 188.841 159.85C187.27 148.327 182.317 137.529 174.609 128.82C164.272 117.146 149.722 110.054 134.157 109.105C118.592 108.156 103.288 113.428 91.6094 123.76ZM163.379 204.86C156.049 211.346 146.959 215.513 137.261 216.833C127.562 218.153 117.69 216.568 108.892 212.278C100.094 207.987 92.7664 201.184 87.835 192.729C82.9037 184.274 80.5904 174.546 81.1875 164.776C81.7847 155.006 85.2655 145.633 91.1899 137.841C97.1143 130.05 105.216 124.19 114.471 121.003C123.725 117.815 133.717 117.444 143.183 119.936C152.649 122.427 161.163 127.67 167.649 135C171.956 139.868 175.262 145.536 177.378 151.681C179.495 157.826 180.38 164.328 179.983 170.815C179.587 177.302 177.916 183.647 175.067 189.489C172.219 195.331 168.247 200.554 163.379 204.86Z" fill="#263238"/>
<path opacity="0.3" d="M127.819 213.07C118.862 212.531 110.266 209.347 103.119 203.922C95.9713 198.497 90.5936 191.074 87.6659 182.591C84.7382 174.109 84.392 164.949 86.6712 156.27C88.9504 147.591 93.7525 139.783 100.47 133.834C107.188 127.885 115.519 124.062 124.409 122.848C133.3 121.635 142.351 123.086 150.417 127.017C158.483 130.949 165.202 137.184 169.724 144.935C174.245 152.686 176.367 161.603 175.819 170.56C175.083 182.559 169.614 193.776 160.614 201.746C151.615 209.716 139.819 213.789 127.819 213.07Z" fill="#407BFF"/>
<g opacity="0.5">
<path d="M133.34 122.52H132.49L85.3698 164.22L85.3097 165.07C84.6984 174.902 87.3181 184.664 92.7697 192.87L160 133.3C152.524 126.898 143.163 123.113 133.34 122.52Z" fill="#FAFAFA"/>
<path d="M164.389 137.559L96.459 197.669C98.7276 200.288 101.291 202.637 104.099 204.669L170.359 145.999C168.697 142.967 166.694 140.135 164.389 137.559Z" fill="#FAFAFA"/>
</g>
<path d="M176.849 212.271L169.109 219.121C168.546 219.618 167.809 219.871 167.059 219.826C166.31 219.781 165.609 219.441 165.109 218.881C164.617 218.315 164.367 217.58 164.411 216.832C164.456 216.084 164.793 215.383 165.349 214.881L173.089 208.031C173.653 207.535 174.391 207.283 175.141 207.33C175.89 207.377 176.591 207.719 177.089 208.281C177.585 208.842 177.839 209.577 177.794 210.325C177.749 211.073 177.409 211.773 176.849 212.271Z" fill="#263238"/>
<path d="M173.999 211C179.829 216.13 185.409 221.49 190.919 226.92C196.429 232.35 201.809 237.92 207.129 243.46C212.449 249 217.669 254.72 222.849 260.46C227.709 266.46 234.329 270.9 235.319 280.32C235.396 281.074 235.293 281.835 235.018 282.54C234.743 283.246 234.304 283.876 233.737 284.378C233.17 284.881 232.492 285.241 231.759 285.429C231.025 285.617 230.257 285.628 229.519 285.46C220.279 283.33 216.689 276.22 211.329 270.66C206.275 264.827 201.295 258.94 196.389 253C191.482 247.06 186.665 241.024 181.939 234.89C177.219 228.77 172.579 222.58 168.189 216.17C167.625 215.385 167.372 214.419 167.479 213.459C167.586 212.499 168.044 211.612 168.766 210.969C169.488 210.327 170.422 209.975 171.388 209.981C172.354 209.986 173.284 210.35 173.999 211Z" fill="#263238"/>
<path d="M198.779 130.49C198.629 131.17 198.149 131.64 197.699 131.49C197.249 131.34 197.019 130.76 197.169 130.09C197.319 129.42 197.799 128.94 198.249 129.09C198.699 129.24 198.929 129.81 198.779 130.49Z" fill="#263238"/>
<path d="M191.11 128.791C190.96 129.471 190.47 129.941 190.03 129.841C189.59 129.741 189.35 129.111 189.5 128.431C189.65 127.751 190.13 127.281 190.58 127.381C191.03 127.481 191.26 128.111 191.11 128.791Z" fill="#263238"/>
<path d="M190.77 127.461L189.24 126.631C189.24 126.631 189.79 128.091 190.77 127.461Z" fill="#263238"/>
<path d="M193.2 130.541C192.252 131.953 191.115 133.228 189.82 134.331C190.111 134.656 190.469 134.914 190.87 135.087C191.271 135.26 191.704 135.343 192.14 135.331L193.2 130.541Z" fill="#ED893E"/>
<path d="M195.249 138.8C194.912 138.776 194.578 138.726 194.249 138.65C194.223 138.644 194.199 138.633 194.178 138.618C194.156 138.603 194.138 138.584 194.124 138.561C194.11 138.539 194.101 138.514 194.096 138.488C194.092 138.462 194.093 138.436 194.099 138.41C194.105 138.385 194.116 138.36 194.131 138.339C194.146 138.318 194.166 138.299 194.188 138.286C194.21 138.272 194.235 138.262 194.261 138.258C194.287 138.254 194.313 138.254 194.339 138.26C195.179 138.464 196.056 138.468 196.898 138.272C197.741 138.076 198.525 137.685 199.189 137.13C199.206 137.104 199.228 137.081 199.255 137.065C199.282 137.048 199.312 137.038 199.343 137.034C199.374 137.031 199.406 137.035 199.436 137.045C199.465 137.056 199.492 137.072 199.514 137.095C199.537 137.117 199.554 137.144 199.564 137.173C199.574 137.203 199.578 137.235 199.575 137.266C199.571 137.297 199.561 137.327 199.544 137.354C199.528 137.381 199.505 137.403 199.479 137.42C198.9 137.919 198.228 138.297 197.502 138.534C196.776 138.771 196.01 138.862 195.249 138.8Z" fill="#263238"/>
<path d="M213.11 139.431C212.649 140.111 212.058 140.694 211.372 141.145C210.686 141.596 209.917 141.908 209.11 142.061C206.95 142.461 206.11 140.481 206.84 138.551C207.52 136.811 209.48 134.551 211.56 134.991C212.013 135.104 212.431 135.327 212.775 135.642C213.12 135.956 213.381 136.352 213.535 136.792C213.689 137.233 213.731 137.705 213.656 138.165C213.582 138.626 213.394 139.061 213.11 139.431Z" fill="#FFB573"/>
<path d="M201.998 127.5C201.917 127.524 201.83 127.523 201.75 127.496C201.669 127.469 201.599 127.418 201.548 127.35C200.438 125.82 197.998 125.84 197.978 125.84C197.87 125.84 197.765 125.796 197.689 125.719C197.612 125.643 197.568 125.538 197.568 125.43C197.567 125.376 197.577 125.323 197.596 125.273C197.616 125.224 197.645 125.178 197.682 125.14C197.719 125.102 197.764 125.072 197.813 125.051C197.862 125.03 197.915 125.02 197.968 125.02C198.088 125.02 200.848 125.02 202.208 126.87C202.272 126.957 202.298 127.066 202.281 127.173C202.264 127.28 202.206 127.376 202.118 127.44L201.998 127.5Z" fill="#263238"/>
<path d="M189.509 123.17C189.438 123.165 189.37 123.142 189.311 123.104C189.251 123.065 189.202 123.012 189.169 122.95C189.12 122.853 189.112 122.741 189.145 122.638C189.179 122.535 189.252 122.449 189.349 122.4C189.921 122.093 190.557 121.927 191.205 121.915C191.854 121.903 192.496 122.045 193.079 122.33C193.171 122.386 193.238 122.476 193.266 122.58C193.294 122.684 193.281 122.795 193.229 122.89C193.175 122.984 193.085 123.053 192.98 123.081C192.875 123.109 192.763 123.094 192.669 123.04C192.205 122.821 191.696 122.715 191.183 122.731C190.67 122.746 190.169 122.883 189.719 123.13C189.652 123.158 189.581 123.171 189.509 123.17Z" fill="#263238"/>
<path d="M241.13 385.53H241C240.807 385.486 240.628 385.392 240.481 385.259C240.334 385.126 240.223 384.958 240.16 384.77C240.104 384.66 240.079 384.536 240.088 384.413C240.096 384.29 240.139 384.171 240.21 384.07C240.84 383.17 243.96 383.28 244.31 383.3C244.35 383.298 244.39 383.31 244.422 383.334C244.455 383.357 244.479 383.391 244.49 383.43C244.503 383.468 244.506 383.508 244.497 383.547C244.488 383.586 244.468 383.622 244.44 383.65C243.67 384.41 242.2 385.66 241.13 385.53ZM243.83 383.68C242.58 383.68 240.91 383.82 240.58 384.29C240.553 384.337 240.538 384.391 240.538 384.445C240.538 384.499 240.553 384.553 240.58 384.6C240.621 384.726 240.693 384.839 240.789 384.93C240.885 385.021 241.002 385.086 241.13 385.12C241.7 385.25 242.69 384.7 243.83 383.68Z" fill="#407BFF"/>
<path d="M243.999 383.68C242.929 383.55 240.999 382.82 240.739 381.98C240.685 381.827 240.686 381.66 240.741 381.507C240.795 381.354 240.9 381.225 241.039 381.14C241.161 381.043 241.304 380.974 241.456 380.937C241.608 380.901 241.766 380.899 241.919 380.93C243.149 381.17 244.429 383.3 244.489 383.39C244.504 383.421 244.512 383.455 244.512 383.49C244.512 383.525 244.504 383.559 244.489 383.59C244.47 383.621 244.444 383.646 244.412 383.664C244.381 383.681 244.345 383.69 244.309 383.69C244.206 383.696 244.102 383.693 243.999 383.68ZM241.789 381.32C241.61 381.3 241.431 381.35 241.289 381.46C241.079 381.62 241.089 381.75 241.129 381.84C241.329 382.41 242.879 383.12 243.919 383.26C243.459 382.57 242.579 381.47 241.849 381.33L241.789 381.32Z" fill="#407BFF"/>
<path d="M182.168 406.11C181.432 406.18 180.693 405.993 180.078 405.58C179.939 405.457 179.831 405.302 179.767 405.127C179.702 404.953 179.682 404.765 179.708 404.58C179.713 404.468 179.747 404.36 179.806 404.265C179.866 404.17 179.95 404.093 180.048 404.04C181.108 403.45 184.548 405.21 184.928 405.41C184.966 405.43 184.996 405.461 185.016 405.498C185.036 405.536 185.043 405.578 185.038 405.62C185.035 405.662 185.017 405.702 184.988 405.733C184.959 405.764 184.92 405.784 184.878 405.79C183.987 405.983 183.08 406.091 182.168 406.11ZM180.628 404.33C180.498 404.323 180.368 404.347 180.248 404.4C180.209 404.423 180.176 404.455 180.151 404.493C180.127 404.531 180.112 404.575 180.108 404.62C180.093 404.741 180.107 404.864 180.149 404.979C180.191 405.094 180.259 405.197 180.348 405.28C180.868 405.75 182.288 405.83 184.198 405.51C183.083 404.919 181.876 404.52 180.628 404.33Z" fill="#407BFF"/>
<path d="M184.84 405.81H184.76C183.76 405.35 181.7 403.49 181.86 402.51C181.86 402.28 182.06 401.99 182.62 401.93C182.823 401.908 183.029 401.929 183.223 401.991C183.418 402.053 183.597 402.155 183.75 402.29C184.84 403.19 185.04 405.51 185.04 405.61C185.046 405.645 185.041 405.68 185.027 405.712C185.013 405.744 184.99 405.771 184.96 405.79C184.924 405.81 184.881 405.817 184.84 405.81ZM182.79 402.31H182.66C182.29 402.31 182.27 402.5 182.26 402.55C182.16 403.13 183.54 404.6 184.59 405.23C184.51 404.251 184.125 403.321 183.49 402.57C183.299 402.396 183.049 402.303 182.79 402.31Z" fill="#407BFF"/>
<path d="M198.44 129.17L196.91 128.33C196.91 128.33 197.46 129.79 198.44 129.17Z" fill="#263238"/>
<path d="M214.75 209.521L215.64 212.651C215.76 212.901 215.48 213.151 215.07 213.151H179C178.69 213.151 178.43 212.991 178.41 212.791L178.09 209.661C178.09 209.441 178.34 209.261 178.69 209.261H214.14C214.256 209.243 214.374 209.258 214.482 209.304C214.59 209.35 214.682 209.425 214.75 209.521Z" fill="#407BFF"/>
<path opacity="0.2" d="M214.75 209.521L215.64 212.651C215.76 212.901 215.48 213.151 215.07 213.151H179C178.69 213.151 178.43 212.991 178.41 212.791L178.09 209.661C178.09 209.441 178.34 209.261 178.69 209.261H214.14C214.256 209.243 214.374 209.258 214.482 209.304C214.59 209.35 214.682 209.425 214.75 209.521Z" fill="#333333"/>
<path d="M209.87 213.48H210.82C211.01 213.48 211.15 213.39 211.14 213.27L210.69 209.2C210.69 209.08 210.51 208.98 210.33 208.98H209.33C209.14 208.98 208.99 209.08 209.01 209.2L209.45 213.27C209.51 213.39 209.68 213.48 209.87 213.48Z" fill="#407BFF"/>
<path opacity="0.4" d="M209.87 213.48H210.82C211.01 213.48 211.15 213.39 211.14 213.27L210.69 209.2C210.69 209.08 210.51 208.98 210.33 208.98H209.33C209.14 208.98 208.99 209.08 209.01 209.2L209.45 213.27C209.51 213.39 209.68 213.48 209.87 213.48Z" fill="white"/>
<path d="M181.709 213.48H182.659C182.849 213.48 182.989 213.39 182.979 213.27L182.539 209.2C182.539 209.08 182.359 208.98 182.169 208.98H181.219C181.029 208.98 180.889 209.08 180.899 209.2L181.339 213.27C181.359 213.39 181.519 213.48 181.709 213.48Z" fill="#407BFF"/>
<path opacity="0.4" d="M181.709 213.48H182.659C182.849 213.48 182.989 213.39 182.979 213.27L182.539 209.2C182.539 209.08 182.359 208.98 182.169 208.98H181.219C181.029 208.98 180.889 209.08 180.899 209.2L181.339 213.27C181.359 213.39 181.519 213.48 181.709 213.48Z" fill="white"/>
<path d="M195.729 213.48H196.729C196.919 213.48 197.059 213.39 197.049 213.27L196.609 209.2C196.609 209.08 196.429 208.98 196.239 208.98H195.289C195.099 208.98 194.959 209.08 194.969 209.2L195.409 213.27C195.379 213.39 195.539 213.48 195.729 213.48Z" fill="#407BFF"/>
<path opacity="0.4" d="M195.729 213.48H196.729C196.919 213.48 197.059 213.39 197.049 213.27L196.609 209.2C196.609 209.08 196.429 208.98 196.239 208.98H195.289C195.099 208.98 194.959 209.08 194.969 209.2L195.409 213.27C195.379 213.39 195.539 213.48 195.729 213.48Z" fill="white"/>
<path d="M193.189 218.56L184.689 214.76L187.109 223.19C187.109 223.19 192.509 224.41 194.859 221.7L193.189 218.56Z" fill="#FFB573"/>
<path d="M224.51 169.689C224.9 172.639 225.21 175.609 225.56 178.559L226.46 187.459C226.78 190.459 227.02 193.389 227.3 196.359L227.67 200.809L227.77 201.929C227.77 202.039 227.77 202.499 227.77 202.819C227.77 203.139 227.77 203.509 227.77 203.819C227.621 205.091 227.216 206.319 226.58 207.429C225.551 209.14 224.191 210.629 222.58 211.809C221.23 212.828 219.798 213.734 218.3 214.519C215.499 215.967 212.587 217.187 209.59 218.169C206.66 219.169 203.72 219.999 200.77 220.739C197.82 221.479 194.87 222.089 191.82 222.559L190.82 218.309C193.57 217.399 196.38 216.469 199.11 215.419C201.84 214.369 204.57 213.339 207.19 212.149C209.769 211.021 212.268 209.718 214.67 208.249C215.778 207.581 216.828 206.821 217.81 205.979C218.581 205.356 219.222 204.588 219.7 203.719C219.804 203.529 219.859 203.316 219.86 203.099C219.86 203.099 219.86 203.099 219.86 203.019C219.86 202.939 219.86 203.019 219.86 202.799L219.7 201.699L219.06 197.269C218.67 194.269 218.23 191.359 217.87 188.399L216.74 179.529C216.42 176.529 216.05 173.609 215.74 170.639L224.51 169.689Z" fill="#FFB573"/>
<path d="M220.429 159.311C223.929 160.371 228.149 172.451 228.149 172.451L215.879 185.081C215.879 185.081 209.579 172.081 211.049 167.561C212.589 162.841 216.429 158.091 220.429 159.311Z" fill="#407BFF"/>
<path d="M177.66 216.51L180.06 223.45L187.11 223.19L184.69 214.76L177.66 216.51Z" fill="#FFB573"/>
<path d="M296.36 191.62C298.66 175.18 287.18 161.85 270.74 161.85H390.86C407.31 161.85 418.78 175.18 416.49 191.62H296.36Z" fill="#263238"/>
<path opacity="0.7" d="M296.36 191.62C298.66 175.18 287.18 161.85 270.74 161.85H390.86C407.31 161.85 418.78 175.18 416.49 191.62H296.36Z" fill="#407BFF"/>
<path d="M270.74 161.85H390.86C374.42 161.85 359.23 175.18 356.94 191.62L329.78 386.46C327.49 402.91 312.3 416.24 295.86 416.24H235.28C218.84 416.24 207.37 402.91 209.66 386.46L236.81 191.62C239.11 175.18 254.29 161.85 270.74 161.85Z" fill="#407BFF"/>
<path d="M270.229 386.459C267.939 402.909 279.409 416.239 295.859 416.239H175.729C159.289 416.239 147.819 402.909 150.109 386.459H270.229Z" fill="#263238"/>
<path opacity="0.7" d="M270.229 386.459C267.939 402.909 279.409 416.239 295.859 416.239H175.729C159.289 416.239 147.819 402.909 150.109 386.459H270.229Z" fill="#407BFF"/>
<path opacity="0.4" d="M289.489 222.46H335.999C336.677 222.428 337.323 222.167 337.834 221.72C338.344 221.274 338.688 220.667 338.809 220C338.862 219.693 338.847 219.379 338.764 219.079C338.682 218.779 338.534 218.501 338.331 218.265C338.129 218.029 337.876 217.841 337.592 217.714C337.309 217.586 337 217.524 336.689 217.53H290.179C289.497 217.551 288.843 217.809 288.331 218.26C287.818 218.711 287.478 219.326 287.369 220C287.316 220.306 287.331 220.62 287.414 220.919C287.496 221.219 287.644 221.496 287.847 221.731C288.05 221.967 288.302 222.154 288.586 222.28C288.87 222.406 289.179 222.467 289.489 222.46Z" fill="white"/>
<path opacity="0.4" d="M288.21 231.63H322.4C323.081 231.609 323.733 231.352 324.246 230.903C324.758 230.454 325.099 229.842 325.21 229.17C325.263 228.864 325.248 228.55 325.165 228.25C325.083 227.951 324.935 227.673 324.732 227.438C324.529 227.203 324.277 227.015 323.993 226.889C323.709 226.763 323.4 226.702 323.09 226.71H288.9C288.218 226.729 287.565 226.985 287.052 227.434C286.539 227.883 286.199 228.497 286.09 229.17C286.036 229.476 286.052 229.79 286.134 230.089C286.217 230.388 286.365 230.666 286.568 230.901C286.771 231.136 287.023 231.324 287.307 231.45C287.591 231.576 287.899 231.637 288.21 231.63Z" fill="white"/>
<path opacity="0.4" d="M268.924 233.079C275.358 227.078 276.34 217.676 271.119 212.078C265.897 206.481 256.449 206.808 250.016 212.81C243.582 218.811 242.6 228.213 247.821 233.811C253.043 239.408 262.491 239.081 268.924 233.079Z" fill="white"/>
<path d="M246.209 223C245.887 225.134 246.136 227.314 246.929 229.32C247.792 231.431 249.279 233.228 251.191 234.47C253.104 235.712 255.35 236.34 257.629 236.27C260.137 236.211 262.595 235.548 264.793 234.338C266.991 233.129 268.866 231.407 270.259 229.32C271.562 227.433 272.411 225.27 272.739 223C273.739 215.68 268.649 209.74 261.319 209.74C257.65 209.845 254.134 211.228 251.375 213.648C248.617 216.069 246.79 219.376 246.209 223Z" fill="white"/>
<path opacity="0.4" d="M249.82 228C250.482 229.618 251.621 230.995 253.087 231.948C254.552 232.9 256.273 233.383 258.02 233.33C259.946 233.286 261.833 232.778 263.521 231.85C265.21 230.923 266.65 229.602 267.72 228C265.228 226.201 262.224 225.251 259.15 225.29C255.85 225.318 252.622 226.256 249.82 228Z" fill="#263238"/>
<path opacity="0.4" d="M255.389 219.7C255.287 220.264 255.313 220.845 255.465 221.399C255.616 221.952 255.889 222.465 256.263 222.9C256.638 223.335 257.105 223.681 257.63 223.913C258.155 224.144 258.725 224.256 259.299 224.24C260.553 224.204 261.756 223.73 262.698 222.901C263.641 222.072 264.263 220.939 264.459 219.7C264.56 219.136 264.535 218.557 264.384 218.004C264.233 217.452 263.961 216.94 263.587 216.506C263.214 216.072 262.748 215.727 262.224 215.496C261.7 215.264 261.131 215.153 260.559 215.17C259.304 215.205 258.102 215.677 257.158 216.503C256.214 217.33 255.588 218.461 255.389 219.7Z" fill="#263238"/>
<path opacity="0.4" d="M283.909 262.53H299.599C300.28 262.509 300.932 262.252 301.445 261.804C301.957 261.355 302.298 260.742 302.409 260.07C302.462 259.764 302.447 259.45 302.364 259.151C302.282 258.851 302.134 258.574 301.931 258.338C301.728 258.103 301.476 257.916 301.192 257.79C300.908 257.664 300.6 257.602 300.289 257.61H284.589C283.909 257.63 283.257 257.886 282.745 258.335C282.234 258.784 281.896 259.398 281.789 260.07C281.736 260.376 281.751 260.69 281.834 260.989C281.916 261.289 282.064 261.566 282.267 261.802C282.47 262.037 282.722 262.224 283.006 262.35C283.29 262.476 283.598 262.538 283.909 262.53Z" fill="white"/>
<path opacity="0.4" d="M309.069 262.53H331.489C332.17 262.509 332.822 262.253 333.335 261.804C333.847 261.355 334.188 260.742 334.299 260.07C334.354 259.764 334.341 259.449 334.259 259.149C334.177 258.849 334.029 258.571 333.826 258.335C333.622 258.099 333.369 257.912 333.084 257.786C332.799 257.661 332.49 257.601 332.179 257.61H309.759C309.078 257.629 308.424 257.886 307.911 258.335C307.399 258.784 307.058 259.397 306.949 260.07C306.896 260.376 306.911 260.69 306.994 260.99C307.076 261.289 307.224 261.567 307.427 261.802C307.63 262.037 307.882 262.225 308.166 262.351C308.45 262.477 308.759 262.538 309.069 262.53Z" fill="white"/>
<path opacity="0.4" d="M282.63 271.71H321.06C321.742 271.688 322.395 271.43 322.908 270.98C323.421 270.529 323.761 269.914 323.87 269.24C323.923 268.934 323.908 268.62 323.825 268.32C323.742 268.021 323.594 267.744 323.391 267.508C323.189 267.273 322.936 267.086 322.652 266.96C322.368 266.834 322.06 266.772 321.75 266.78H283.31C282.63 266.803 281.98 267.061 281.47 267.51C280.959 267.958 280.62 268.569 280.51 269.24C280.455 269.547 280.468 269.862 280.55 270.162C280.632 270.463 280.78 270.742 280.983 270.978C281.186 271.215 281.439 271.403 281.724 271.53C282.009 271.656 282.318 271.718 282.63 271.71Z" fill="white"/>
<path opacity="0.4" d="M263.344 273.154C269.778 267.152 270.76 257.75 265.539 252.152C260.317 246.555 250.869 246.882 244.436 252.884C238.002 258.885 237.02 268.288 242.241 273.885C247.463 279.482 256.911 279.155 263.344 273.154Z" fill="white"/>
<path d="M240.619 263C240.3 265.134 240.552 267.314 241.349 269.32C242.204 271.428 243.681 273.225 245.584 274.472C247.487 275.719 249.724 276.357 251.999 276.3C254.507 276.242 256.965 275.58 259.164 274.37C261.363 273.16 263.237 271.438 264.629 269.35C265.94 267.466 266.793 265.302 267.119 263.03C268.119 255.71 263.029 249.77 255.699 249.77C252.04 249.88 248.533 251.261 245.782 253.675C243.03 256.089 241.205 259.386 240.619 263Z" fill="white"/>
<path opacity="0.4" d="M244.229 268.1C244.892 269.719 246.033 271.096 247.5 272.049C248.967 273.001 250.69 273.483 252.439 273.43C254.363 273.384 256.248 272.875 257.934 271.948C259.621 271.02 261.059 269.7 262.129 268.1C259.637 266.3 256.632 265.349 253.559 265.39C250.259 265.421 247.031 266.358 244.229 268.1Z" fill="#263238"/>
<path opacity="0.4" d="M249.809 259.77C249.707 260.334 249.733 260.913 249.884 261.466C250.035 262.019 250.307 262.532 250.68 262.966C251.053 263.401 251.519 263.747 252.043 263.98C252.567 264.212 253.136 264.325 253.709 264.31C254.964 264.274 256.168 263.801 257.112 262.972C258.056 262.143 258.681 261.011 258.879 259.77C258.98 259.206 258.954 258.627 258.804 258.075C258.653 257.522 258.381 257.01 258.007 256.576C257.634 256.142 257.168 255.797 256.644 255.566C256.12 255.335 255.551 255.223 254.979 255.24C253.724 255.275 252.522 255.747 251.578 256.574C250.634 257.401 250.008 258.531 249.809 259.77Z" fill="#263238"/>
<path opacity="0.4" d="M278.319 302.61H305.649C306.332 302.589 306.985 302.331 307.498 301.88C308.011 301.429 308.35 300.814 308.459 300.14C308.513 299.834 308.497 299.52 308.415 299.221C308.332 298.921 308.184 298.644 307.981 298.409C307.778 298.173 307.526 297.986 307.242 297.86C306.958 297.734 306.65 297.673 306.339 297.68H278.999C278.318 297.701 277.666 297.958 277.154 298.407C276.641 298.856 276.3 299.468 276.189 300.14C276.134 300.448 276.148 300.764 276.231 301.065C276.313 301.367 276.462 301.646 276.666 301.883C276.87 302.119 277.124 302.307 277.41 302.433C277.696 302.559 278.007 302.62 278.319 302.61Z" fill="white"/>
<path opacity="0.4" d="M276.999 311.78H319.609C320.288 311.748 320.935 311.486 321.446 311.037C321.956 310.588 322.299 309.979 322.419 309.31C322.47 309.004 322.454 308.689 322.37 308.39C322.286 308.091 322.137 307.813 321.933 307.578C321.73 307.343 321.477 307.156 321.192 307.03C320.908 306.904 320.6 306.843 320.289 306.85H277.689C277.008 306.871 276.355 307.128 275.843 307.577C275.33 308.025 274.99 308.638 274.879 309.31C274.824 309.617 274.838 309.932 274.92 310.233C275.001 310.533 275.149 310.812 275.352 311.049C275.555 311.285 275.808 311.473 276.093 311.6C276.378 311.726 276.687 311.788 276.999 311.78Z" fill="white"/>
<path opacity="0.2" d="M230.39 350.82H295.63C296.585 350.789 297.501 350.427 298.219 349.796C298.938 349.165 299.415 348.304 299.57 347.36C299.646 346.928 299.625 346.485 299.508 346.063C299.391 345.641 299.181 345.25 298.893 344.919C298.605 344.588 298.248 344.326 297.846 344.151C297.444 343.977 297.008 343.894 296.57 343.91H231.35C230.395 343.938 229.481 344.297 228.763 344.927C228.046 345.557 227.571 346.417 227.42 347.36C227.342 347.79 227.362 348.231 227.476 348.653C227.591 349.074 227.798 349.465 228.082 349.796C228.367 350.127 228.721 350.391 229.12 350.568C229.519 350.745 229.953 350.831 230.39 350.82Z" fill="white"/>
<path opacity="0.2" d="M228.599 363.679H276.539C277.495 363.65 278.41 363.288 279.127 362.656C279.844 362.025 280.319 361.163 280.469 360.219C280.546 359.788 280.525 359.345 280.408 358.922C280.291 358.5 280.081 358.109 279.793 357.778C279.505 357.448 279.147 357.185 278.745 357.011C278.343 356.836 277.907 356.754 277.469 356.769H229.559C228.605 356.799 227.69 357.159 226.971 357.788C226.252 358.417 225.774 359.277 225.619 360.219C225.553 360.648 225.58 361.087 225.7 361.504C225.819 361.922 226.028 362.308 226.311 362.637C226.594 362.966 226.946 363.23 227.341 363.41C227.736 363.59 228.165 363.682 228.599 363.679Z" fill="white"/>
<path opacity="0.2" d="M253.069 193.41H330.859C331.348 193.389 331.814 193.198 332.178 192.872C332.543 192.546 332.783 192.104 332.859 191.62C332.898 191.399 332.887 191.171 332.826 190.954C332.766 190.737 332.659 190.536 332.511 190.365C332.364 190.195 332.18 190.06 331.974 189.969C331.768 189.878 331.544 189.834 331.319 189.84H253.569C253.083 189.865 252.62 190.055 252.256 190.379C251.893 190.703 251.65 191.141 251.569 191.62C251.531 191.839 251.542 192.064 251.6 192.279C251.657 192.493 251.761 192.693 251.904 192.863C252.047 193.034 252.225 193.171 252.426 193.265C252.627 193.36 252.847 193.409 253.069 193.41Z" fill="white"/>
<path opacity="0.4" d="M257.758 313.228C264.192 307.226 265.174 297.824 259.953 292.227C254.731 286.629 245.283 286.957 238.85 292.958C232.416 298.959 231.434 308.362 236.655 313.959C241.877 319.556 251.325 319.229 257.758 313.228Z" fill="white"/>
<path d="M235 303.11C234.679 305.243 234.927 307.423 235.72 309.43C236.585 311.538 238.074 313.332 239.985 314.572C241.897 315.812 244.142 316.439 246.42 316.37C248.927 316.311 251.383 315.649 253.582 314.441C255.78 313.233 257.655 311.515 259.05 309.43C260.351 307.542 261.2 305.379 261.53 303.11C262.53 295.78 257.44 289.84 250.11 289.84C246.44 289.945 242.922 291.329 240.163 293.752C237.404 296.174 235.578 299.484 235 303.11Z" fill="white"/>
<path opacity="0.4" d="M238.65 308.18C239.313 309.799 240.455 311.177 241.922 312.129C243.389 313.082 245.112 313.563 246.86 313.51C248.785 313.464 250.67 312.956 252.356 312.028C254.042 311.1 255.481 309.781 256.55 308.18C254.061 306.377 251.055 305.426 247.98 305.47C244.68 305.494 241.45 306.432 238.65 308.18Z" fill="#263238"/>
<path opacity="0.4" d="M244.219 299.85C244.119 300.414 244.147 300.993 244.299 301.546C244.451 302.098 244.724 302.61 245.098 303.044C245.472 303.477 245.939 303.822 246.463 304.053C246.987 304.285 247.556 304.396 248.129 304.38C249.382 304.344 250.584 303.872 251.526 303.045C252.468 302.218 253.091 301.088 253.289 299.85C253.39 299.286 253.364 298.706 253.214 298.153C253.063 297.6 252.791 297.088 252.418 296.653C252.044 296.219 251.579 295.873 251.055 295.64C250.531 295.408 249.962 295.295 249.389 295.31C248.133 295.346 246.929 295.819 245.985 296.648C245.041 297.477 244.417 298.609 244.219 299.85Z" fill="#263238"/>
</svg>
